<svg class="svg-icon" style="width: 1em; height: 1em;vertical-align: middle;fill: currentColor;overflow: hidden;" viewBox="0 0 1024 1024" version="1.1" xmlns="http://www.w3.org/2000/svg"><path d="M512 0a512 512 0 0 1 512 512c0 282.766222-229.233778 512-512 512S0 794.766222 0 512 229.233778 0 512 0z m0 221.013333a170.666667 170.666667 0 0 0-170.666667 170.666667 42.666667 42.666667 0 0 0 85.333334 0 85.333333 85.333333 0 1 1 85.333333 85.333333 42.666667 42.666667 0 0 0-42.666667 42.666667v111.36a42.666667 42.666667 0 0 0 85.333334 0v-74.24A170.666667 170.666667 0 0 0 512 221.013333z m-42.666667 542.293334a42.666667 42.666667 0 1 0 85.333334 0 42.666667 42.666667 0 0 0-85.333334 0z"  /></svg>